<svg xmlns="http://www.w3.org/2000/svg" viewBox="0 0 960 360" role="img" aria-label="Animated texture driver scout filmstrip">
  <rect width="960" height="360" fill="#15171d"/>
  <rect x="40" y="52" width="880" height="220" rx="10" fill="#252934" stroke="#596071" stroke-width="3"/>
  <g fill="#101217">
    <rect x="68" y="82" width="144" height="160" rx="4"/>
    <rect x="244" y="82" width="144" height="160" rx="4"/>
    <rect x="420" y="82" width="144" height="160" rx="4"/>
    <rect x="596" y="82" width="144" height="160" rx="4"/>
    <rect x="772" y="82" width="120" height="160" rx="4"/>
  </g>
  <g fill="#6fb7ff" opacity="0.36">
    <rect x="128" y="106" width="10" height="112"/>
    <rect x="304" y="106" width="10" height="112"/>
    <rect x="480" y="106" width="10" height="112"/>
    <rect x="656" y="106" width="10" height="112"/>
    <rect x="832" y="106" width="10" height="112"/>
  </g>
  <g fill="#ffb15f">
    <rect x="92" y="110" width="22" height="104" rx="3"/>
    <rect x="286" y="110" width="22" height="104" rx="3"/>
    <rect x="476" y="110" width="22" height="104" rx="3"/>
    <rect x="668" y="110" width="22" height="104" rx="3"/>
    <rect x="846" y="110" width="22" height="104" rx="3"/>
  </g>
  <g fill="#d9dde8" font-family="Helvetica, Arial, sans-serif" font-size="22">
    <text x="86" y="300">f1</text>
    <text x="260" y="300">f12</text>
    <text x="436" y="300">f24</text>
    <text x="612" y="300">f36</text>
    <text x="786" y="300">f48</text>
  </g>
  <path d="M108 258 C250 320 650 320 856 258" fill="none" stroke="#ffb15f" stroke-width="5"/>
  <text x="40" y="330" fill="#f4f1e8" font-family="Helvetica, Arial, sans-serif" font-size="26">Frame-sampled driver filmstrip</text>
</svg>
