<svg xmlns="http://www.w3.org/2000/svg" width="960" height="540" viewBox="0 0 960 540" role="img" aria-labelledby="title desc">
  <title id="title">Diffuser light object scout diagram</title>
  <desc id="desc">A visible translucent diffuser lamp with printed bands lighting matte, organic, and glossy receiver objects.</desc>
  <rect width="960" height="540" fill="#0e1117"/>
  <rect x="96" y="96" width="768" height="320" rx="8" fill="#1a1f28" stroke="#4f5b69" stroke-width="2"/>
  <path d="M116 416 L844 416 L760 484 L200 484 Z" fill="#242830"/>
  <ellipse cx="306" cy="205" rx="104" ry="104" fill="#f6d38f" opacity="0.34"/>
  <ellipse cx="306" cy="205" rx="82" ry="82" fill="#ffdf9a" opacity="0.48"/>
  <ellipse cx="306" cy="205" rx="54" ry="54" fill="#ffe6aa" opacity="0.72"/>
  <g stroke="#252018" stroke-width="5" opacity="0.65" fill="none">
    <ellipse cx="306" cy="168" rx="68" ry="14"/>
    <ellipse cx="306" cy="188" rx="76" ry="16"/>
    <ellipse cx="306" cy="210" rx="78" ry="17"/>
    <ellipse cx="306" cy="232" rx="70" ry="15"/>
  </g>
  <circle cx="306" cy="205" r="28" fill="#fff1bb"/>
  <g opacity="0.28" fill="#ffd58a">
    <path d="M318 226 C420 330, 552 372, 716 386 L716 418 L346 418 C320 350, 304 280, 318 226 Z"/>
  </g>
  <rect x="470" y="296" width="130" height="92" rx="4" fill="#8c8d92"/>
  <rect x="584" y="250" width="18" height="138" fill="#101217"/>
  <ellipse cx="448" cy="346" rx="72" ry="54" fill="#9a6d51"/>
  <circle cx="652" cy="358" r="38" fill="#5f91c8"/>
  <circle cx="638" cy="342" r="12" fill="#c4e1ff"/>
  <g fill="#11141a">
    <rect x="476" y="282" width="108" height="10"/>
    <rect x="476" y="394" width="108" height="10"/>
    <rect x="392" y="404" width="320" height="8"/>
  </g>
  <g fill="#6f7784">
    <rect x="194" y="302" width="16" height="88"/>
    <rect x="230" y="286" width="16" height="104"/>
    <rect x="742" y="296" width="16" height="94"/>
  </g>
  <text x="126" y="472" fill="#e8eef8" font-family="Arial, sans-serif" font-size="28">visible shell + inner emitter + receiver diagnostics</text>
</svg>
