<svg xmlns="http://www.w3.org/2000/svg" viewBox="0 0 960 420" role="img" aria-label="Layered material component scout">
  <rect width="960" height="420" fill="#17181d"/>
  <rect x="92" y="72" width="776" height="266" fill="#24262e" stroke="#5f6674" stroke-width="4"/>
  <rect x="146" y="286" width="668" height="44" fill="#30313a"/>
  <g opacity="0.55">
    <rect x="176" y="104" width="34" height="190" fill="#6fa0ff"/>
    <rect x="252" y="104" width="34" height="190" fill="#e7a15f"/>
    <rect x="682" y="104" width="34" height="190" fill="#6fa0ff"/>
    <rect x="758" y="104" width="34" height="190" fill="#f2e6c8"/>
  </g>
  <circle cx="480" cy="220" r="84" fill="#d78267"/>
  <ellipse cx="378" cy="232" rx="34" ry="70" fill="#d78267"/>
  <rect x="574" y="174" width="54" height="116" rx="16" fill="#d78267"/>
  <path d="M396 178 C440 132 526 132 568 180" fill="none" stroke="#ffd3bd" stroke-width="14" opacity="0.55"/>
  <path d="M604 188 C620 212 628 246 620 276" fill="none" stroke="#fff5dc" stroke-width="8" opacity="0.85"/>
  <g fill="none" stroke-linecap="round" stroke-width="8">
    <path d="M106 360 C190 314 268 292 360 270" stroke="#d9a06b"/>
    <path d="M148 48 C230 102 304 144 384 178" stroke="#ffad7a"/>
    <path d="M812 52 C718 118 654 168 588 220" stroke="#e1483a"/>
    <path d="M852 356 C740 304 670 280 604 252" stroke="#f6ead6"/>
    <path d="M480 40 C488 104 488 142 482 174" stroke="#b28cff"/>
    <path d="M480 384 C500 318 500 280 492 238" stroke="#7ee0c2"/>
  </g>
  <g fill="#f3efe3" font-family="Helvetica, Arial, sans-serif" font-size="22">
    <text x="70" y="386">diffuse</text>
    <text x="98" y="42">epidermal</text>
    <text x="760" y="42">back scatter</text>
    <text x="784" y="386">specular</text>
    <text x="438" y="32">bump</text>
    <text x="420" y="408">balanced mix</text>
  </g>
</svg>
