<svg xmlns="http://www.w3.org/2000/svg" width="960" height="540" viewBox="0 0 960 540" role="img" aria-labelledby="title desc">
  <title id="title">Smoke billboard scout diagram</title>
  <desc id="desc">A diagnostic stage with foreground markers, layered smoke cards, a midground subject, and value steps behind it.</desc>
  <rect width="960" height="540" fill="#11141a"/>
  <rect x="86" y="84" width="788" height="342" rx="8" fill="#1b2029" stroke="#55606f" stroke-width="2"/>
  <g opacity="0.95">
    <rect x="128" y="130" width="72" height="238" fill="#242b35"/>
    <rect x="210" y="130" width="72" height="238" fill="#303844"/>
    <rect x="292" y="130" width="72" height="238" fill="#3d4653"/>
    <rect x="374" y="130" width="72" height="238" fill="#4a5361"/>
    <rect x="456" y="130" width="72" height="238" fill="#576170"/>
    <rect x="538" y="130" width="72" height="238" fill="#646e7e"/>
    <rect x="620" y="130" width="72" height="238" fill="#717c8d"/>
    <rect x="702" y="130" width="72" height="238" fill="#7f8a9c"/>
  </g>
  <g stroke="#0d1015" stroke-width="6" opacity="0.9">
    <line x1="126" y1="129" x2="126" y2="368"/>
    <line x1="208" y1="129" x2="208" y2="368"/>
    <line x1="290" y1="129" x2="290" y2="368"/>
    <line x1="372" y1="129" x2="372" y2="368"/>
    <line x1="454" y1="129" x2="454" y2="368"/>
    <line x1="536" y1="129" x2="536" y2="368"/>
    <line x1="618" y1="129" x2="618" y2="368"/>
    <line x1="700" y1="129" x2="700" y2="368"/>
  </g>
  <ellipse cx="478" cy="318" rx="83" ry="108" fill="#342f2b"/>
  <circle cx="478" cy="206" r="45" fill="#3f3831"/>
  <g opacity="0.42">
    <ellipse cx="445" cy="270" rx="252" ry="112" fill="#9fb1bd"/>
    <ellipse cx="492" cy="276" rx="300" ry="134" fill="#7f99ac"/>
    <ellipse cx="520" cy="266" rx="236" ry="98" fill="#c2b18c"/>
  </g>
  <g fill="#090b0f">
    <rect x="190" y="306" width="18" height="112"/>
    <rect x="278" y="306" width="18" height="112"/>
    <rect x="664" y="306" width="18" height="112"/>
    <rect x="752" y="306" width="18" height="112"/>
  </g>
  <g fill="#b5d3ff">
    <rect x="176" y="292" width="46" height="9"/>
    <rect x="264" y="292" width="46" height="9"/>
    <rect x="650" y="292" width="46" height="9"/>
    <rect x="738" y="292" width="46" height="9"/>
  </g>
  <path d="M168 428 L792 428 L858 492 L102 492 Z" fill="#242832"/>
  <text x="118" y="474" fill="#e6edf7" font-family="Arial, sans-serif" font-size="28">alpha cards -> inspect grid -> pick selected render</text>
</svg>
